<?xml version="1.0" encoding="UTF-8" ?>
<!DOCTYPE svg PUBLIC "-//W3C//DTD SVG 1.1//EN" "http://www.w3.org/Graphics/SVG/1.1/DTD/svg11.dtd">
<svg width="418pt" height="134pt" viewBox="0 0 1270 409" version="1.1" xmlns="http://www.w3.org/2000/svg">
<g id="#ffffffff">
<path fill="#ffffff" opacity="1.00" d=" M 204.55 56.04 C 228.49 80.57 250.20 107.33 269.17 135.88 C 280.66 153.33 291.05 171.61 298.78 191.06 C 307.06 212.16 312.63 235.50 307.67 258.09 C 304.40 273.55 294.91 286.89 283.44 297.43 C 266.35 313.21 246.30 325.22 227.06 338.11 C 219.56 343.02 212.09 347.99 204.68 353.03 C 191.82 344.57 178.95 336.11 165.97 327.81 C 150.14 317.37 133.86 307.15 120.58 293.45 C 109.11 281.86 101.43 266.43 100.08 250.10 C 97.41 223.74 106.44 197.92 117.66 174.49 C 132.27 144.86 151.48 117.74 172.29 92.16 C 182.58 79.72 193.18 67.52 204.55 56.04 M 157.07 163.05 C 146.29 180.60 136.54 199.08 131.07 219.04 C 128.38 229.42 126.84 240.40 128.98 251.03 C 130.82 260.56 136.98 268.64 144.26 274.81 C 157.35 286.11 172.43 294.76 187.09 303.83 C 192.44 306.74 197.07 310.73 202.00 314.29 C 202.00 243.72 202.01 173.15 201.99 102.58 C 185.58 121.61 170.33 141.69 157.07 163.05 Z" />
</g>
<g id="#00a6a4ff">
<path fill="#00a6a4" opacity="1.00" d=" M 194.73 0.00 L 214.36 0.00 C 249.41 1.78 284.01 12.45 313.66 31.28 C 342.50 49.42 366.68 74.89 383.29 104.64 C 400.29 134.80 409.21 169.39 409.27 204.00 C 409.37 236.01 401.97 268.07 387.45 296.63 C 366.13 339.29 329.33 373.91 285.49 392.68 C 263.69 402.14 240.20 407.46 216.51 409.00 L 192.61 409.00 C 156.77 406.83 121.47 395.30 91.60 375.32 C 67.20 359.23 46.37 337.80 30.88 313.02 C 12.30 283.52 1.78 249.17 0.00 214.39 L 0.00 194.66 C 1.29 172.00 5.93 149.48 14.46 128.43 C 28.79 92.44 53.69 60.82 85.13 38.24 C 116.94 15.21 155.53 1.94 194.73 0.00 M 204.55 56.04 C 193.18 67.52 182.58 79.72 172.29 92.16 C 151.48 117.74 132.27 144.86 117.66 174.49 C 106.44 197.92 97.41 223.74 100.08 250.10 C 101.43 266.43 109.11 281.86 120.58 293.45 C 133.86 307.15 150.14 317.37 165.97 327.81 C 178.95 336.11 191.82 344.57 204.68 353.03 C 212.09 347.99 219.56 343.02 227.06 338.11 C 246.30 325.22 266.35 313.21 283.44 297.43 C 294.91 286.89 304.40 273.55 307.67 258.09 C 312.63 235.50 307.06 212.16 298.78 191.06 C 291.05 171.61 280.66 153.33 269.17 135.88 C 250.20 107.33 228.49 80.57 204.55 56.04 Z" />
<path fill="#00a6a4" opacity="1.00" d=" M 157.07 163.05 C 170.33 141.69 185.58 121.61 201.99 102.58 C 202.01 173.15 202.00 243.72 202.00 314.29 C 197.07 310.73 192.44 306.74 187.09 303.83 C 172.43 294.76 157.35 286.11 144.26 274.81 C 136.98 268.64 130.82 260.56 128.98 251.03 C 126.84 240.40 128.38 229.42 131.07 219.04 C 136.54 199.08 146.29 180.60 157.07 163.05 Z" />
</g>
</svg>
